# xmcd CD database file
#
# Track frame offsets:
#	150
#	20062
#	38770
#	66719
#	84785
#	106779
#	119561
#	140824
#	158683
#	168218
#	196701
#	219431
#	241203
#	264919
#	281246
#
# Disc length: 4098 seconds
#
# Revision: 0
# Processed by: cddbd v1.5.1PL0 Copyright (c) Steve Scherf et al.
# Submitted via: CDex 1.51
#
DISCID=d010000f
DTITLE=Various Artist - Rhythm 'N Blues
DYEAR=1900
DGENRE=Blues
TTITLE0=B.B. King and Eric Clapton - Riding with the Kings
TTITLE1=Chris Rea - Miss Your Kiss
TTITLE2=Gary Moore - Still Got the Blues
TTITLE3=Richard Sanderson - Reality
TTITLE4=Barry White - I Believe In Love
TTITLE5=James Brown - It's a Man's Man's Man's World
TTITLE6=Dana Gillespie - Where Blue Begins
TTITLE7=Joe Cooker - Civilized Man
TTITLE8=Bill Winters - Ain' No Sunshine
TTITLE9=Muddy Waters - Going Down Slow
TTITLE10=John Campell - Wild Streak
TTITLE11=John Lee Hooker - Chill Out
TTITLE12=Tony Joe White - Gook In Blues
TTITLE13=Manhattans - Kiss and Say Goodbye
TTITLE14=B.B. King and Van Morrison - If you Love Me
EXTD=
EXTT0=
EXTT1=
EXTT2=
EXTT3=
EXTT4=
EXTT5=
EXTT6=
EXTT7=
EXTT8=
EXTT9=
EXTT10=
EXTT11=
EXTT12=
EXTT13=
EXTT14=
PLAYORDER=
